# xmcd
#
# Track frame offsets: 
#        150
#        14505
#        29505
#        41305
#        57990
#        68300
#        87267
#        104962
#        119470
#        130312
#        148762
#        161200
#
# Disc length: 2362 seconds
#
# Revision: 0
# Processed by: cddbd v1.4PL0 Copyright (c) Steve Scherf et al.
# Submitted via: ExactAudioCopy v0.95a3
#
DISCID=ac09380c
DTITLE=Dan Roberts - Viva La Cowboy
DYEAR=1900
DGENRE=Country
TTITLE0=Fort Worth, Texas
TTITLE1=Angelina Dance
TTITLE2=Swingin' 'Til We Can't See Strait
TTITLE3=Late Night Singin'
TTITLE4=Only in Texas
TTITLE5=I'm the One to Call
TTITLE6=The Beaches of Cheyenne
TTITLE7=Tucumcari Woman
TTITLE8=I'm Thinkin' It
TTITLE9=Wolves
TTITLE10=Full Moon Turnaround
TTITLE11=Viva La Cowboy
EXTD=
EXTT0=
EXTT1=
EXTT2=
EXTT3=
EXTT4=
EXTT5=
EXTT6=
EXTT7=
EXTT8=
EXTT9=
EXTT10=
EXTT11=
PLAYORDER=
